<svg xmlns="http://www.w3.org/2000/svg" xmlns:xlink="http://www.w3.org/1999/xlink" width="568" height="454.584" viewBox="0 0 568 454.584"><defs><style>.a{fill:#3f3d56;}.b{fill:#4281a4;}.c{opacity:0.2;}.d{opacity:0.8;fill:url(#a);}.e{fill:#fff;}.f{fill:#e6e6e6;}.g{fill:#ffb8b8;}.h{fill:#2f2e41;}</style><linearGradient id="a" y1="0.5" x2="1" y2="0.5" gradientUnits="objectBoundingBox"><stop offset="0" stop-color="#fff"/><stop offset="1" stop-color="#fff" stop-opacity="0.302"/></linearGradient></defs><g transform="translate(0 0)"><path class="a" d="M869.071,232.534V350.8H561.5V232.534A153.777,153.777,0,0,1,706.408,79q4.4-.257,8.877-.251c1.7,0,3.392.024,5.069.086a153.274,153.274,0,0,1,103.668,44.956c.833.833,1.647,1.671,2.467,2.516a154.908,154.908,0,0,1,11.828,13.953,153.09,153.09,0,0,1,30.752,92.275Z" transform="translate(-301.071 -78.747)"/><circle class="b" cx="40.525" cy="40.525" r="40.525" transform="translate(450.876 68.018)"/><circle class="c" cx="4.65" cy="4.65" r="4.65" transform="translate(482.765 75.99)"/><circle class="c" cx="4.65" cy="4.65" r="4.65" transform="translate(490.737 122.494)"/><circle class="c" cx="3.322" cy="3.322" r="3.322" transform="translate(510.003 97.913)"/><circle class="c" cx="10.629" cy="10.629" r="10.629" transform="translate(464.828 101.235)"/><path class="d" d="M729.94,398.543l20.185-23.631,20.185-23.631,11.4-13.34c.63-.738-.342-1.89-.973-1.152L760.548,360.42l-20.186,23.631-11.4,13.34c-.63.738.342,1.89.973,1.152Z" transform="translate(-365.931 -178.716)"/><path class="d" d="M726.94,228.543l20.185-23.631,20.186-23.631,11.4-13.34c.63-.738-.343-1.89-.973-1.152L757.548,190.42l-20.186,23.631-11.4,13.34c-.63.738.343,1.89.973,1.152Z" transform="translate(-364.767 -112.795)"/><path class="e" d="M812.137,78.835V350.8H798.185V79q4.4-.257,8.878-.254C808.763,78.746,810.456,78.771,812.137,78.835Z" transform="translate(-392.851 -78.746)"/><path class="e" d="M857.794,170.385H611.725a154.266,154.266,0,0,1,11.827-13.952H845.966a154.242,154.242,0,0,1,11.827,13.952Z" transform="translate(-320.547 -108.871)"/><circle class="f" cx="3.193" cy="3.193" r="3.193" transform="translate(530.436 175.832)"/><circle class="f" cx="3.193" cy="3.193" r="3.193" transform="translate(324.115 149.506)"/><path class="f" d="M769.939,272.738l-1.594,1.583-1.583-1.594-1.062,1.055,1.583,1.594-1.594,1.583,1.055,1.062,1.594-1.583,1.583,1.594,1.063-1.055-1.583-1.594,1.594-1.583Z" transform="translate(-296.913 -105.756)"/><path class="f" d="M481.939,324.738l-1.594,1.583-1.583-1.594-1.062,1.056,1.583,1.594-1.594,1.583,1.055,1.062,1.594-1.583,1.583,1.594,1.063-1.055-1.583-1.594,1.594-1.583Z" transform="translate(-185.235 -125.92)"/><path class="f" d="M740.939,354.738l-1.594,1.583-1.583-1.594-1.062,1.055,1.583,1.594-1.594,1.583,1.055,1.062,1.594-1.583,1.583,1.594,1.063-1.056-1.583-1.594,1.594-1.583Z" transform="translate(-285.668 -137.553)"/><path class="f" d="M564.939,124.738l-1.594,1.583-1.583-1.594-1.062,1.055,1.583,1.594-1.594,1.583,1.055,1.062,1.594-1.583,1.583,1.594,1.063-1.055-1.583-1.594,1.594-1.583Z" transform="translate(-217.42 -48.366)"/><rect class="f" width="371.068" height="1.224" transform="translate(0 432.112)"/><path class="f" d="M207.684,623.31c-8.112,11.467-10.255,76.731-10.732,97.65-.012.471-.024.918-.031,1.341H176.387c-.251-.447-.484-.888-.7-1.341-12.171-24.024-5.418-52.829-5.063-54.286-.924,4.58,3.257,17.853,7.983,30.709C181.487,657.852,206.141,625.306,207.684,623.31Z" transform="translate(-148.65 -289.913)"/><path class="g" d="M431.406,526.354l-2.324,10.071s.775,23.241-5.423,20.917-4.648-22.466-4.648-22.466l5.423-10.071Z" transform="translate(-245.751 -251.715)"/><circle class="g" cx="15.494" cy="15.494" r="15.494" transform="translate(135.688 133.258)"/><path class="g" d="M362.462,328.674l-1.549,22.466,19.367,2.324s0-18.592,1.549-20.917S362.462,328.674,362.462,328.674Z" transform="translate(-223.289 -175.661)"/><path class="f" d="M386.009,366.632l-25.1-10.6s-11.992-9.236-19.015-2.394l-3.152,4.515s-27.879,10.87-27.872,19.392l10.883,42.6s-6.177,24.021,3.121,25.562l50.359,4.6a17.427,17.427,0,0,0,.758-19.368l2.3-25.567Z" transform="translate(-203.885 -184.362)"/><path class="f" d="M405.761,377.251l17.042-.79s5.424,1.545,9.311,16.26,4.682,38.73,4.682,38.73l-9.258,43.391L415.916,473.3l4.612-41.837-7.771-27.882Z" transform="translate(-240.68 -194.192)"/><path class="f" d="M314.31,385.413l-8.4,2.624s-7.082,10.559-7.077,15.982-3.058,46.484-3.058,46.484L315.945,483.8l6.183-16.274-12.413-20.906,10.049-25.574Z" transform="translate(-198.03 -197.663)"/><path class="h" d="M378.536,507.149l-55.7-4.9s-5.5,35.113-4.728,49.058,1.549,35.636,1.549,35.636l-6.2,94.512,24.015-3.1,3.1-78.243L350.647,557.5l11.62,54.228,7.747,69.722,20.917-2.324-6.972-84.441S390.156,518.769,378.536,507.149Z" transform="translate(-204.888 -242.969)"/><path class="h" d="M422.592,784.836l6.972,2.324s14.719-3.873,10.846,6.2-14.719,8.522-14.719,8.522S412.521,811.95,407.1,804.2l3.1-16.268Z" transform="translate(-241.198 -352.548)"/><path class="h" d="M330.221,784.836l6.972,2.324s14.719-3.873,10.846,6.2-14.719,8.522-14.719,8.522-13.17,10.071-18.592,2.324l3.1-16.268Z" transform="translate(-205.379 -352.548)"/><path class="h" d="M356.973,322.381s-16.268-11.62-7.747-25.565c5.912-9.674,18.162-8.908,25.111-7.532a11.74,11.74,0,0,1,8.588,6.757c1.162,2.711,1.162,5.423-3.486,5.423-9.3,0-4.648,6.972-4.648,6.972s-6.2,1.549-4.648,6.972S356.973,322.381,356.973,322.381Z" transform="translate(-217.799 -160.072)"/></g></svg>