<svg xmlns="http://www.w3.org/2000/svg" xmlns:xlink="http://www.w3.org/1999/xlink" width="405.59" height="265.945" viewBox="0 0 405.59 265.945"><defs><style>.a{fill:#e6e6e6;}.b{fill:#3f3d56;}.c{fill:#a0616a;}.d{fill:#2f2e41;}.e{fill:#ccc;}.f{fill:#c1666b;}.g{filter:url(#o);}.h{filter:url(#m);}.i{filter:url(#k);}.j{filter:url(#i);}.k{filter:url(#g);}.l{filter:url(#e);}.m{filter:url(#c);}.n{filter:url(#a);}</style><filter id="a" x="313.058" y="99.301" width="47.824" height="95.354" filterUnits="userSpaceOnUse"><feOffset dx="6" dy="6" input="SourceAlpha"/><feGaussianBlur stdDeviation="3" result="b"/><feFlood flood-opacity="0.161"/><feComposite operator="in" in2="b"/><feComposite in="SourceGraphic"/></filter><filter id="c" x="294.214" y="36.658" width="54.208" height="33.215" filterUnits="userSpaceOnUse"><feOffset dx="6" dy="6" input="SourceAlpha"/><feGaussianBlur stdDeviation="3" result="d"/><feFlood flood-opacity="0.161"/><feComposite operator="in" in2="d"/><feComposite in="SourceGraphic"/></filter><filter id="e" x="278.96" y="38.837" width="55.079" height="77.524" filterUnits="userSpaceOnUse"><feOffset dx="6" dy="6" input="SourceAlpha"/><feGaussianBlur stdDeviation="3" result="f"/><feFlood flood-opacity="0.161"/><feComposite operator="in" in2="f"/><feComposite in="SourceGraphic"/></filter><filter id="g" x="285.237" y="78.166" width="68.537" height="91.502" filterUnits="userSpaceOnUse"><feOffset dx="6" dy="6" input="SourceAlpha"/><feGaussianBlur stdDeviation="3" result="h"/><feFlood flood-opacity="0.161"/><feComposite operator="in" in2="h"/><feComposite in="SourceGraphic"/></filter><filter id="i" x="320.263" y="94.556" width="37.802" height="83.453" filterUnits="userSpaceOnUse"><feOffset dx="6" dy="6" input="SourceAlpha"/><feGaussianBlur stdDeviation="3" result="j"/><feFlood flood-opacity="0.161"/><feComposite operator="in" in2="j"/><feComposite in="SourceGraphic"/></filter><filter id="k" x="287.815" y="40.399" width="61.782" height="57.115" filterUnits="userSpaceOnUse"><feOffset dx="6" dy="6" input="SourceAlpha"/><feGaussianBlur stdDeviation="3" result="l"/><feFlood flood-opacity="0.161"/><feComposite operator="in" in2="l"/><feComposite in="SourceGraphic"/></filter><filter id="m" x="150.371" y="174.798" width="82.678" height="82.678" filterUnits="userSpaceOnUse"><feOffset dx="6" dy="6" input="SourceAlpha"/><feGaussianBlur stdDeviation="3" result="n"/><feFlood flood-opacity="0.161"/><feComposite operator="in" in2="n"/><feComposite in="SourceGraphic"/></filter><filter id="o" x="85.973" y="0" width="116.26" height="190.5" filterUnits="userSpaceOnUse"><feOffset dx="6" dy="6" input="SourceAlpha"/><feGaussianBlur stdDeviation="3" result="p"/><feFlood flood-opacity="0.161"/><feComposite operator="in" in2="p"/><feComposite in="SourceGraphic"/></filter></defs><g transform="translate(0 2.952)"><path class="a" d="M914.584,670.527,903,635.569s12.742,12.742,12.742,23.2l-2.287-24.177a36.9,36.9,0,0,1,5.881,22.216C918.682,670.2,914.584,670.527,914.584,670.527Z" transform="translate(-544.644 -408.312)"/><path class="a" d="M430.306,609.346,419,575.228s12.435,12.435,12.435,22.639l-2.232-23.6a36.009,36.009,0,0,1,5.739,21.682C434.305,609.027,430.306,609.346,430.306,609.346Z" transform="translate(-309.131 -378.962)"/><path class="a" d="M597.687,647.437c.019,22.443-44.494,15.54-98.989,15.587s-98.335,7.027-98.355-15.417,44.478-27.363,98.973-27.41S597.667,624.994,597.687,647.437Z" transform="translate(-300.053 -401.309)"/><rect class="b" width="405.59" height="1.027" transform="translate(0 261.702)"/><path class="c" d="M495.37,394.277h-7.125l-3.391-27.48H495.37Z" transform="translate(-235.928 -178.459)"/><path class="d" d="M472.557,416.357h14.532v8.651H464.7v-.791A7.86,7.86,0,0,1,472.557,416.357Z" transform="translate(-226.119 -202.574)"/><path class="c" d="M597.37,473.277h-7.125l-3.391-27.48H597.37Z" transform="translate(-285.561 -216.9)"/><path class="d" d="M574.557,495.357h14.531v8.651H566.7v-.791a7.86,7.86,0,0,1,7.86-7.86Z" transform="translate(-275.752 -241.015)"/><g class="n" transform="matrix(1, 0, 0, 1, 0, -2.95)"><path class="c" d="M849.225,462.751a5.3,5.3,0,0,0-1.487-7.984l-16.547-67.406-10.58,4.552,19.682,65.176a5.325,5.325,0,0,0,8.932,5.662Z" transform="translate(-504.55 -285.06)"/></g><g class="m" transform="matrix(1, 0, 0, 1, 0, -2.95)"><path class="c" d="M818.459,267.149a5.844,5.844,0,0,0-8.941.592l-25.611,2.94,3.9,9.879L811.1,276.2a5.875,5.875,0,0,0,7.364-9.051Z" transform="translate(-486.69 -225.69)"/></g><path class="d" d="M769,513.29l11.176,83.877,13.91-2.864s-2.046-61.086,4.909-68.45-8.945-20.265-8.945-20.265Z" transform="translate(-479.44 -345.541)"/><path class="d" d="M732.7,467.516l-5.134,7.7s-39.532-16.429-39.532,9.755-2.262,43.952-3.08,45.18,9.466,4.412,14.375,3.594c0,0,6.057-42.212,5.647-44.666,0,0,38.779,19.013,46.143,17.377s9.1-7.429,10.331-10.7-.513-29.264-.513-29.264L736.394,459Z" transform="translate(-438.522 -322.871)"/><g class="l" transform="matrix(1, 0, 0, 1, 0, -2.95)"><path class="e" d="M767.11,329.113l-1.463-1.756s-16.39-36.877-9.951-46.828,34.536-11.414,35.414-10.829-2.1,8.185-.048,11.7c0,0-21.765,4.719-23.229,5.3s11.277,22.217,11.277,22.217l-1.463,13.17Z" transform="translate(-472.24 -227.75)"/></g><g class="k" transform="matrix(1, 0, 0, 1, 0, -2.95)"><path class="e" d="M801.742,348.243S786.523,350,785.937,350s-.878-3.8-.878-3.8L771.6,364.633s-6.633,53.492-4.877,52.614,34.144,4.165,34.437,1.823-.293-14.048.585-14.634,15.219-36.877,15.219-36.877-1.463-7.61-6.439-10.244S801.742,348.243,801.742,348.243Z" transform="translate(-478.19 -265.03)"/></g><g class="j" transform="matrix(1, 0, 0, 1, 0, -2.95)"><path class="e" d="M845.474,378.118l4.683,4.975s6.958,57.173,3.153,58.929-11.295,1.54-11.295,1.54l-7.37-27.1Z" transform="translate(-511.38 -280.56)"/></g><circle class="c" cx="13.471" cy="13.471" r="13.471" transform="translate(295.46 49.7)"/><g class="i" transform="matrix(1, 0, 0, 1, 0, -2.95)"><path class="d" d="M786.4,297.459c-.182-2.8-3.708-2.891-6.509-2.917s-6.15.074-7.735-2.236a5.22,5.22,0,0,1,.018-5.282,15.008,15.008,0,0,1,3.689-4.106c3.615-3.126,7.341-6.227,11.681-8.228s9.426-2.809,13.928-1.2c5.529,1.973,13,12.13,13.65,17.965A21.164,21.164,0,0,1,809.5,307.6c-3.931,4.361-12.928,2.6-18.591,4.152,3.442-4.872,1.173-13.725-4.341-16Z" transform="translate(-480.63 -229.23)"/></g><g class="h" transform="matrix(1, 0, 0, 1, 0, -2.95)"><path class="f" d="M32.339,0A32.339,32.339,0,1,1,0,32.339,32.339,32.339,0,0,1,32.339,0Z" transform="translate(153.37 177.8)"/></g><g class="g" transform="matrix(1, 0, 0, 1, 0, -2.95)"><path class="f" d="M453.44,366.443a23.185,23.185,0,0,1-21.181-13.753L380.943,237.128a30.717,30.717,0,1,1,57.435-21.493L475.537,336.5a23.144,23.144,0,0,1-22.1,29.947Z" transform="translate(-289.33 -190.94)"/></g></g></svg>