<svg xmlns="http://www.w3.org/2000/svg" xmlns:xlink="http://www.w3.org/1999/xlink" width="406" height="236.002" viewBox="0 0 406 236.002"><defs><style>.a{fill:none;}.b{fill:#4281a4;}.c{fill:#535353;}.d{fill:#3f3d56;}.e{fill:#8e8e8e;}.f{fill:#fff;}.g{fill:#a2a1a1;}.h{fill:#7c7c7c;}.i{clip-path:url(#a);}.j{fill:#a2a2a2;}.k{fill:#2f2e41;}.l{fill:#e6e6e6;}.m{fill:#6c63ff;}</style><clipPath id="a"><rect class="a" width="71.393" height="73.86"/></clipPath></defs><g transform="translate(0 0)"><path class="b" d="M584.294,531.019a3.46,3.46,0,0,1-2.5-1.059l-5.472-5.669a3.474,3.474,0,0,1,.087-4.907l30.7-29.281a5.759,5.759,0,0,1,8.09.167l2.34,2.424a5.675,5.675,0,0,1,1.6,4.068,5.748,5.748,0,0,1-1.769,4.033L586.7,530.048A3.456,3.456,0,0,1,584.294,531.019Z" transform="translate(-385.51 -349.958)"/><path class="b" d="M702.945,531.019a3.459,3.459,0,0,1-2.409-.972l-30.674-29.252a5.748,5.748,0,0,1-1.769-4.032,5.675,5.675,0,0,1,1.6-4.068l2.34-2.424a5.758,5.758,0,0,1,8.09-.167l30.7,29.28a3.474,3.474,0,0,1,.088,4.908l-.192-.185.192.185-5.472,5.669a3.46,3.46,0,0,1-2.5,1.059Z" transform="translate(-428.741 -349.958)"/><path class="c" d="M335.051,540.8H219.74V515.418a3.572,3.572,0,0,1,1.671-3.034L275.477,478.2a3.606,3.606,0,0,1,3.838,0l54.065,34.188a3.572,3.572,0,0,1,1.671,3.034Z" transform="translate(-219.74 -344.885)"/><path class="d" d="M528.591,334.611H330v-1.068H527.523V254h1.068Z" transform="translate(-153.831 -118.403)"/><path class="d" d="M95.068,124.611H94V44H310.741v1.068H95.068Z" transform="translate(-43.818 -20.511)"/><path class="e" d="M329.586,548.217H251.023a3.594,3.594,0,0,1-3.59-3.59V493.518a3.594,3.594,0,0,1,3.59-3.59h78.563a3.594,3.594,0,0,1,3.59,3.59v51.108A3.594,3.594,0,0,1,329.586,548.217Z" transform="translate(-232.649 -350.612)"/><path class="f" d="M284.855,508.025H261.624a2.323,2.323,0,1,1,0-4.646h23.231a2.323,2.323,0,1,1,0,4.646Z" transform="translate(-238.182 -356.882)"/><path class="f" d="M329.416,529.81H261.835a2.534,2.534,0,0,1,0-5.069h67.581a2.534,2.534,0,0,1,0,5.069Z" transform="translate(-238.182 -366.84)"/><path class="f" d="M329.416,546.425H261.835a2.534,2.534,0,0,1,0-5.069h67.581a2.534,2.534,0,0,1,0,5.069Z" transform="translate(-238.182 -374.585)"/><path class="f" d="M329.416,563.04H261.835a2.534,2.534,0,0,1,0-5.069h67.581a2.534,2.534,0,0,1,0,5.069Z" transform="translate(-238.182 -382.331)"/><path class="g" d="M331.461,602.911H223.331a3.594,3.594,0,0,1-3.59-3.59V552.859a3.594,3.594,0,0,1,3.59-3.59l.082.017,47.575,20.071a16.584,16.584,0,0,0,12.816,0l47.614-20.087h.043a3.594,3.594,0,0,1,3.59,3.59v46.462A3.594,3.594,0,0,1,331.461,602.911Z" transform="translate(-219.74 -378.274)"/><path class="h" d="M881.5,288.891h-48.2A3.7,3.7,0,0,1,829.6,285.2V232.652a3.7,3.7,0,0,1,3.691-3.691h48.2a3.7,3.7,0,0,1,3.691,3.691V285.2a3.7,3.7,0,0,1-3.691,3.691Z" transform="translate(-504.03 -228.961)"/><path class="f" d="M868.079,247.567H844.194a2.389,2.389,0,0,1,0-4.777h23.885a2.389,2.389,0,0,1,0,4.777Z" transform="translate(-509.718 -235.407)"/><path class="f" d="M881.324,269.965H844.411a2.606,2.606,0,0,1,0-5.211h36.913a2.606,2.606,0,1,1,0,5.211Z" transform="translate(-509.718 -245.646)"/><path class="f" d="M881.324,287.049H844.411a2.606,2.606,0,1,1,0-5.211h36.913a2.606,2.606,0,1,1,0,5.211Z" transform="translate(-509.718 -253.609)"/><path class="f" d="M881.324,304.132H844.411a2.606,2.606,0,1,1,0-5.211h36.913a2.606,2.606,0,1,1,0,5.211Z" transform="translate(-509.718 -261.573)"/><g class="i" transform="translate(334.606 3.023)"><g transform="translate(-334.606 -3.023)"><path class="j" d="M893.779,308.232,848.874,290.7a3.7,3.7,0,0,1-2.1-4.781l19.106-48.951a3.7,3.7,0,0,1,4.781-2.1L915.569,252.4a3.7,3.7,0,0,1,2.1,4.781L898.56,306.135A3.7,3.7,0,0,1,893.779,308.232Z" transform="translate(-511.918 -231.601)"/></g></g><path class="f" d="M913.477,264.52l-22.25-8.685a2.389,2.389,0,1,1,1.737-4.45l22.25,8.685a2.389,2.389,0,0,1-1.737,4.45Z" transform="translate(-532.047 -239.338)"/><path class="f" d="M917.59,290.258,883.2,276.836a2.606,2.606,0,1,1,1.895-4.855L919.485,285.4a2.606,2.606,0,1,1-1.895,4.855Z" transform="translate(-528.243 -248.932)"/><path class="f" d="M911.378,306.172,876.992,292.75a2.606,2.606,0,0,1,1.895-4.855l34.387,13.422a2.606,2.606,0,0,1-1.895,4.855Z" transform="translate(-525.347 -256.35)"/><path class="f" d="M905.167,322.085,870.78,308.664a2.606,2.606,0,1,1,1.895-4.855l34.387,13.422a2.606,2.606,0,0,1-1.895,4.855Z" transform="translate(-522.452 -263.768)"/><path class="f" d="M892.778,295.382H840.827l-8.26-13.14a3.474,3.474,0,0,0-2.941-1.625H817.214a3.474,3.474,0,0,0-3.474,3.474v62.1a3.474,3.474,0,0,0,3.474,3.474h75.564a3.474,3.474,0,0,0,3.474-3.474V298.857A3.474,3.474,0,0,0,892.778,295.382Z" transform="translate(-496.636 -253.041)"/><path class="k" d="M412.638,358.154h31.5a3.2,3.2,0,0,1,3.2,3.2v14.013a18.952,18.952,0,0,1-18.952,18.952h0a18.952,18.952,0,0,1-18.952-18.952V361.357a3.2,3.2,0,0,1,3.2-3.2Z" transform="translate(-190.86 -166.955)"/><path class="k" d="M663.915,561.587h-35.8a3.474,3.474,0,0,1-3.47-3.47v-58.16a21.37,21.37,0,1,1,42.741,0v58.16A3.474,3.474,0,0,1,663.915,561.587Z" transform="translate(-408.488 -345.325)"/><circle class="b" cx="28.571" cy="28.571" r="28.571" transform="translate(208.746 71.423)"/><path class="k" d="M664.087,418.268c-1.765-.049-3.962-.111-5.653-1.347a4.342,4.342,0,0,1-1.708-3.242,2.92,2.92,0,0,1,.993-2.4,3.768,3.768,0,0,1,3.565-.513l-1.441-10.531,1.058-.145,1.694,12.38-.883-.405c-1.024-.47-2.43-.708-3.3.029a1.876,1.876,0,0,0-.615,1.545,3.282,3.282,0,0,0,1.271,2.417c1.316.962,3.067,1.086,5.053,1.142Z" transform="translate(-423.439 -308.734)"/><rect class="k" width="5.75" height="1.068" transform="translate(225.422 92.411)"/><rect class="k" width="5.75" height="1.068" transform="translate(243.572 92.411)"/><path class="k" d="M657.948,645.27a3.491,3.491,0,0,1-.794-.092L593.2,630.284a3.47,3.47,0,0,1-2.593-4.166l1.787-7.674a3.47,3.47,0,0,1,4.167-2.592l63.959,14.895a3.47,3.47,0,0,1,2.592,4.167l-1.787,7.674A3.473,3.473,0,0,1,657.948,645.27Z" transform="translate(-392.577 -409.269)"/><path class="k" d="M606.631,644.872a3.476,3.476,0,0,1-3.439-3.022l-1.018-7.813a3.474,3.474,0,0,1,2.993-3.889l65.12-8.484a3.47,3.47,0,0,1,3.889,2.992l1.018,7.813a3.47,3.47,0,0,1-2.993,3.889l-65.12,8.484A3.462,3.462,0,0,1,606.631,644.872Z" transform="translate(-398 -412.007)"/><path class="k" d="M619.972,348.848c-4.631-.528-8.217-4.965-8.611-9.467-.469-5.356,2.65-10.442,6.929-13.448,4.475-3.143,10.05-4.455,15.444-4.744a42.446,42.446,0,0,1,29.013,9.563c4.042,3.357,7.817,7.633,9.248,12.8,1.243,4.486.231,9.568-3.376,12.709a8.529,8.529,0,0,1-6.545,2.015,16.266,16.266,0,0,1-7.618-3.388c-4.349-3.162-7.92-7.567-13.218-9.22-3.885-1.212-8.927-.145-11.3,3.368a6.4,6.4,0,0,0-1.021,2.679.829.829,0,0,0,.559.985.806.806,0,0,0,.985-.559c.623-4.425,6.065-6.077,9.883-5.066,5.567,1.473,9.3,6.441,13.872,9.6a16.857,16.857,0,0,0,8.078,3.224,10.031,10.031,0,0,0,7.048-2.165c3.9-3.081,5.395-8.381,4.532-13.153-1-5.526-4.718-10.261-8.8-13.928A44.014,44.014,0,0,0,635,319.54c-5.645.13-11.534,1.295-16.4,4.278-4.717,2.894-8.363,7.735-8.839,13.363a12.616,12.616,0,0,0,6.8,12.3,10.65,10.65,0,0,0,3.412.963c1.022.117,1.014-1.486,0-1.6Z" transform="translate(-401.529 -271.181)"/><circle class="l" cx="18.17" cy="18.17" r="18.17" transform="translate(219.372 164.55)"/><path class="m" d="M437.091,343.131l-5.767-7.416,3.354-2.608,2.73,3.511,9.225-9.737,3.085,2.922Z" transform="translate(-201.063 -152.377)"/><path class="b" d="M695.7,568.865a3.5,3.5,0,0,1-.362-.019A3.447,3.447,0,0,1,693,567.584l-4.971-6.114a3.47,3.47,0,0,1,.5-4.881l17.588-14.711a3.475,3.475,0,0,1,4.884.5l4.97,6.114a3.47,3.47,0,0,1-.5,4.881l-17.588,14.711A3.448,3.448,0,0,1,695.7,568.865Z" transform="translate(-437.674 -374.466)"/><path class="b" d="M604.018,568.865a3.444,3.444,0,0,1-2.183-.778l-17.594-14.716a3.47,3.47,0,0,1-.5-4.879l4.97-6.114a3.474,3.474,0,0,1,4.881-.5l17.594,14.716a3.47,3.47,0,0,1,.5,4.879l-4.971,6.114a3.447,3.447,0,0,1-2.336,1.263A3.541,3.541,0,0,1,604.018,568.865Z" transform="translate(-389.058 -374.465)"/></g></svg>